<mxfile host="app.diagrams.net" modified="2020-11-03T15:38:38.245Z" agent="5.0 (Macintosh; Intel Mac OS X 10_15_6) AppleWebKit/537.36 (KHTML, like Gecko) Chrome/86.0.4240.111 Safari/537.36" etag="Y8Z_70MsF8v9FlLrmGTH" version="13.8.8" type="github">
  <diagram id="bNvZfeywgjpNPPodTFvU" name="Page-1">
    <mxGraphModel dx="1426" dy="826" grid="1" gridSize="10" guides="1" tooltips="1" connect="1" arrows="1" fold="1" page="1" pageScale="1" pageWidth="1654" pageHeight="2336" math="0" shadow="0">
      <root>
        <mxCell id="0" />
        <mxCell id="1" parent="0" />
        <mxCell id="MGGLy1dyiqGOnvXCq7jh-1" value="" style="rounded=0;whiteSpace=wrap;html=1;" parent="1" vertex="1">
          <mxGeometry x="40" y="40" width="160" height="40" as="geometry" />
        </mxCell>
        <mxCell id="MGGLy1dyiqGOnvXCq7jh-2" value="" style="rounded=0;whiteSpace=wrap;html=1;" parent="1" vertex="1">
          <mxGeometry x="40" y="80" width="160" height="120" as="geometry" />
        </mxCell>
        <mxCell id="MGGLy1dyiqGOnvXCq7jh-3" value="" style="rounded=0;whiteSpace=wrap;html=1;" parent="1" vertex="1">
          <mxGeometry x="40" y="280" width="680" height="40" as="geometry" />
        </mxCell>
        <mxCell id="MGGLy1dyiqGOnvXCq7jh-4" value="&lt;div style=&quot;text-align: left&quot;&gt;&lt;div&gt;&lt;font color=&quot;#cc6600&quot;&gt;Components:&lt;/font&gt;&lt;/div&gt;&lt;div&gt;&lt;font color=&quot;#cc6600&quot;&gt;&lt;br&gt;&lt;/font&gt;&lt;/div&gt;&lt;div&gt;&lt;font color=&quot;#cc6600&quot;&gt;CountryDetail,&lt;/font&gt;&lt;/div&gt;&lt;div&gt;&lt;font color=&quot;#cc6600&quot;&gt;CountryList,&lt;/font&gt;&lt;/div&gt;&lt;div&gt;&lt;font color=&quot;#cc6600&quot;&gt;FirstLetterSearch,&lt;/font&gt;&lt;/div&gt;&lt;div&gt;&lt;font color=&quot;#cc6600&quot;&gt;FirstLetterResultsList,&lt;/font&gt;&lt;/div&gt;&lt;div&gt;&lt;font color=&quot;#cc6600&quot;&gt;RegionSearch,&lt;/font&gt;&lt;/div&gt;&lt;div&gt;&lt;font color=&quot;#cc6600&quot;&gt;RegionResultsList,&lt;/font&gt;&lt;/div&gt;&lt;div&gt;&lt;font color=&quot;#cc6600&quot;&gt;SubRegionSearch,&lt;/font&gt;&lt;/div&gt;&lt;div&gt;&lt;font color=&quot;#cc6600&quot;&gt;SubRegionResultsList,&lt;/font&gt;&lt;/div&gt;&lt;div&gt;&lt;font color=&quot;#cc6600&quot;&gt;BlocSearch,&lt;/font&gt;&lt;/div&gt;&lt;div&gt;&lt;font color=&quot;#cc6600&quot;&gt;BlocResultsList,&lt;/font&gt;&lt;/div&gt;&lt;div&gt;&lt;font color=&quot;#cc6600&quot;&gt;LanguageSearch,&lt;/font&gt;&lt;/div&gt;&lt;div&gt;&lt;font color=&quot;#cc6600&quot;&gt;LanguageSearchResultsList,&lt;/font&gt;&lt;/div&gt;&lt;div&gt;&lt;font color=&quot;#cc6600&quot;&gt;SvgMap&lt;/font&gt;&lt;/div&gt;&lt;/div&gt;" style="rounded=0;whiteSpace=wrap;html=1;" parent="1" vertex="1">
          <mxGeometry x="40" y="320" width="680" height="240" as="geometry" />
        </mxCell>
        <mxCell id="MGGLy1dyiqGOnvXCq7jh-5" value="" style="rounded=0;whiteSpace=wrap;html=1;" parent="1" vertex="1">
          <mxGeometry x="280" y="40" width="160" height="40" as="geometry" />
        </mxCell>
        <mxCell id="MGGLy1dyiqGOnvXCq7jh-6" value="" style="rounded=0;whiteSpace=wrap;html=1;" parent="1" vertex="1">
          <mxGeometry x="280" y="80" width="160" height="120" as="geometry" />
        </mxCell>
        <mxCell id="MGGLy1dyiqGOnvXCq7jh-7" value="" style="rounded=0;whiteSpace=wrap;html=1;" parent="1" vertex="1">
          <mxGeometry x="520" y="40" width="160" height="40" as="geometry" />
        </mxCell>
        <mxCell id="MGGLy1dyiqGOnvXCq7jh-8" value="" style="rounded=0;whiteSpace=wrap;html=1;" parent="1" vertex="1">
          <mxGeometry x="520" y="80" width="160" height="120" as="geometry" />
        </mxCell>
        <mxCell id="MGGLy1dyiqGOnvXCq7jh-9" value="&lt;b&gt;Promises&lt;/b&gt;" style="text;html=1;strokeColor=none;fillColor=none;align=center;verticalAlign=middle;whiteSpace=wrap;rounded=0;" parent="1" vertex="1">
          <mxGeometry x="520" y="40" width="160" height="40" as="geometry" />
        </mxCell>
        <mxCell id="MGGLy1dyiqGOnvXCq7jh-14" value="&lt;b&gt;All fetch actions&lt;br&gt;&lt;/b&gt;&lt;br&gt;Takes no props&lt;br&gt;&lt;br&gt;eventBus back to App.vue" style="text;html=1;strokeColor=none;fillColor=none;align=center;verticalAlign=middle;whiteSpace=wrap;rounded=0;" parent="1" vertex="1">
          <mxGeometry x="520" y="80" width="160" height="120" as="geometry" />
        </mxCell>
        <mxCell id="MGGLy1dyiqGOnvXCq7jh-15" value="" style="endArrow=classic;html=1;exitX=-0.019;exitY=0.675;exitDx=0;exitDy=0;exitPerimeter=0;entryX=1.019;entryY=0.15;entryDx=0;entryDy=0;entryPerimeter=0;strokeWidth=2;strokeColor=#66CC00;" parent="1" source="MGGLy1dyiqGOnvXCq7jh-14" target="MGGLy1dyiqGOnvXCq7jh-19" edge="1">
          <mxGeometry width="50" height="50" relative="1" as="geometry">
            <mxPoint x="510" y="161" as="sourcePoint" />
            <mxPoint x="220" y="161" as="targetPoint" />
            <Array as="points">
              <mxPoint x="500" y="161" />
              <mxPoint x="500" y="20" />
              <mxPoint x="220" y="20" />
              <mxPoint x="220" y="98" />
            </Array>
          </mxGeometry>
        </mxCell>
        <mxCell id="MGGLy1dyiqGOnvXCq7jh-16" value="&lt;i&gt;&lt;font style=&quot;font-size: 10px&quot;&gt;eventBus API Data&lt;/font&gt;&lt;/i&gt;" style="text;html=1;strokeColor=none;fillColor=none;align=center;verticalAlign=middle;whiteSpace=wrap;rounded=0;fontStyle=1" parent="1" vertex="1">
          <mxGeometry x="310" width="110" height="20" as="geometry" />
        </mxCell>
        <mxCell id="MGGLy1dyiqGOnvXCq7jh-18" value="App" style="text;html=1;strokeColor=none;fillColor=none;align=center;verticalAlign=middle;whiteSpace=wrap;rounded=0;fontStyle=1" parent="1" vertex="1">
          <mxGeometry x="40" y="40" width="160" height="40" as="geometry" />
        </mxCell>
        <mxCell id="MGGLy1dyiqGOnvXCq7jh-19" value="&lt;b&gt;Holds main country info.&lt;br&gt;&lt;/b&gt;&lt;br&gt;Passes down props to search.vue&lt;br&gt;&lt;br&gt;Passes down props to SVGMap.vue" style="text;html=1;strokeColor=none;fillColor=none;align=center;verticalAlign=middle;whiteSpace=wrap;rounded=0;" parent="1" vertex="1">
          <mxGeometry x="40" y="80" width="160" height="120" as="geometry" />
        </mxCell>
        <mxCell id="MGGLy1dyiqGOnvXCq7jh-20" value="&lt;b&gt;Map Functionality&lt;br&gt;&lt;/b&gt;&lt;br&gt;Props: [&#39;country-list&#39;]&lt;br&gt;&lt;br&gt;Passes down country as prop to list item component." style="text;html=1;strokeColor=none;fillColor=none;align=center;verticalAlign=middle;whiteSpace=wrap;rounded=0;" parent="1" vertex="1">
          <mxGeometry x="280" y="80" width="160" height="120" as="geometry" />
        </mxCell>
        <mxCell id="MGGLy1dyiqGOnvXCq7jh-21" value="SVGMap" style="text;html=1;strokeColor=none;fillColor=none;align=center;verticalAlign=middle;whiteSpace=wrap;rounded=0;fontStyle=1" parent="1" vertex="1">
          <mxGeometry x="280" y="40" width="160" height="40" as="geometry" />
        </mxCell>
        <mxCell id="MGGLy1dyiqGOnvXCq7jh-22" value="" style="endArrow=classic;html=1;exitX=1;exitY=0.75;exitDx=0;exitDy=0;strokeWidth=2;strokeColor=#66B2FF;entryX=-0.006;entryY=0.425;entryDx=0;entryDy=0;entryPerimeter=0;fontColor=#0000FF;" parent="1" source="MGGLy1dyiqGOnvXCq7jh-19" target="MGGLy1dyiqGOnvXCq7jh-20" edge="1">
          <mxGeometry width="50" height="50" relative="1" as="geometry">
            <mxPoint x="390" y="280" as="sourcePoint" />
            <mxPoint x="277" y="120" as="targetPoint" />
            <Array as="points">
              <mxPoint x="240" y="170" />
              <mxPoint x="240" y="131" />
            </Array>
          </mxGeometry>
        </mxCell>
        <mxCell id="MGGLy1dyiqGOnvXCq7jh-24" value="&lt;b&gt;CountrySearch&lt;/b&gt;" style="text;html=1;strokeColor=none;fillColor=none;align=center;verticalAlign=middle;whiteSpace=wrap;rounded=0;" parent="1" vertex="1">
          <mxGeometry x="40" y="280" width="680" height="40" as="geometry" />
        </mxCell>
        <mxCell id="MGGLy1dyiqGOnvXCq7jh-25" value="&lt;b&gt;Main Functionality File&lt;/b&gt;&lt;br&gt;&lt;br&gt;Gets API Data from App.vue&lt;br&gt;&lt;br&gt;&lt;br&gt;Filters Data to generate reference arrays for data filtering, search and display.&lt;br&gt;&lt;br&gt;&lt;font color=&quot;#0000ff&quot;&gt;Props:&lt;br&gt;[ countries, country, borderingCountries ]&lt;/font&gt;&lt;br&gt;&lt;br&gt;&lt;br&gt;Passes Props down to searches.&lt;br&gt;Passes Props down to filter lists." style="text;html=1;strokeColor=none;fillColor=none;align=center;verticalAlign=top;whiteSpace=wrap;rounded=0;" parent="1" vertex="1">
          <mxGeometry x="40" y="320" width="200" height="240" as="geometry" />
        </mxCell>
        <mxCell id="MGGLy1dyiqGOnvXCq7jh-28" value="" style="endArrow=none;html=1;entryX=-0.019;entryY=0.158;entryDx=0;entryDy=0;entryPerimeter=0;endFill=0;startArrow=classic;startFill=1;strokeWidth=2;strokeColor=#007FFF;" parent="1" target="MGGLy1dyiqGOnvXCq7jh-19" edge="1">
          <mxGeometry width="50" height="50" relative="1" as="geometry">
            <mxPoint x="37" y="480" as="sourcePoint" />
            <mxPoint x="30" y="120" as="targetPoint" />
            <Array as="points">
              <mxPoint x="20" y="480" />
              <mxPoint x="20" y="99" />
            </Array>
          </mxGeometry>
        </mxCell>
        <mxCell id="MGGLy1dyiqGOnvXCq7jh-29" value="" style="rounded=0;whiteSpace=wrap;html=1;" parent="1" vertex="1">
          <mxGeometry x="320" y="840" width="160" height="40" as="geometry" />
        </mxCell>
        <mxCell id="MGGLy1dyiqGOnvXCq7jh-30" value="" style="rounded=0;whiteSpace=wrap;html=1;" parent="1" vertex="1">
          <mxGeometry x="520" y="840" width="160" height="40" as="geometry" />
        </mxCell>
        <mxCell id="MGGLy1dyiqGOnvXCq7jh-31" value="" style="rounded=0;whiteSpace=wrap;html=1;" parent="1" vertex="1">
          <mxGeometry x="720" y="840" width="160" height="40" as="geometry" />
        </mxCell>
        <mxCell id="MGGLy1dyiqGOnvXCq7jh-32" value="&lt;font color=&quot;#4d9900&quot;&gt;eventBus Emit Select Letter&lt;/font&gt;&lt;br&gt;&lt;br&gt;&lt;br&gt;&lt;br&gt;Props: [letter]&lt;br&gt;" style="rounded=0;whiteSpace=wrap;html=1;verticalAlign=top;align=center;" parent="1" vertex="1">
          <mxGeometry x="320" y="880" width="160" height="160" as="geometry" />
        </mxCell>
        <mxCell id="MGGLy1dyiqGOnvXCq7jh-33" value="Filters list of countries according to selected parameter&lt;br&gt;&lt;br&gt;Props: [countries, selectedFirstLetter]&lt;br&gt;&lt;br&gt;&lt;font color=&quot;#cc6600&quot;&gt;Components: [FirstLetterResultsListItem]&lt;/font&gt;" style="rounded=0;whiteSpace=wrap;html=1;verticalAlign=top;" parent="1" vertex="1">
          <mxGeometry x="520" y="880" width="160" height="160" as="geometry" />
        </mxCell>
        <mxCell id="MGGLy1dyiqGOnvXCq7jh-34" value="&lt;span style=&quot;font-family: &amp;#34;helvetica&amp;#34; ; color: rgb(77 , 153 , 0)&quot;&gt;eventBus Emit Select Country&lt;br&gt;&lt;/span&gt;&lt;span style=&quot;font-family: &amp;#34;helvetica&amp;#34;&quot;&gt;&lt;br&gt;Displays 1 country which meets the filter criteria&lt;br&gt;&lt;br&gt;Props: [country]&lt;br&gt;&lt;br&gt;&lt;font color=&quot;#cc6600&quot;&gt;Exports to parent list.&lt;/font&gt;&lt;/span&gt;" style="rounded=0;whiteSpace=wrap;html=1;verticalAlign=top;align=center;" parent="1" vertex="1">
          <mxGeometry x="720" y="880" width="160" height="160" as="geometry" />
        </mxCell>
        <mxCell id="MGGLy1dyiqGOnvXCq7jh-35" value="FirstLetterSearch" style="text;html=1;strokeColor=none;fillColor=none;align=center;verticalAlign=middle;whiteSpace=wrap;rounded=0;fontStyle=1" parent="1" vertex="1">
          <mxGeometry x="320" y="840" width="160" height="40" as="geometry" />
        </mxCell>
        <mxCell id="MGGLy1dyiqGOnvXCq7jh-36" value="FirstLetterResultsList" style="text;html=1;strokeColor=none;fillColor=none;align=center;verticalAlign=middle;whiteSpace=wrap;rounded=0;fontStyle=1" parent="1" vertex="1">
          <mxGeometry x="520" y="840" width="160" height="40" as="geometry" />
        </mxCell>
        <mxCell id="MGGLy1dyiqGOnvXCq7jh-37" value="FirstLetterResutsListItem" style="text;html=1;strokeColor=none;fillColor=none;align=center;verticalAlign=middle;whiteSpace=wrap;rounded=0;fontStyle=1" parent="1" vertex="1">
          <mxGeometry x="720" y="840" width="160" height="40" as="geometry" />
        </mxCell>
        <mxCell id="MGGLy1dyiqGOnvXCq7jh-38" value="&lt;span style=&quot;color: rgb(77 , 153 , 0)&quot;&gt;eventBus Emit Select Region&lt;br&gt;&lt;br&gt;&lt;/span&gt;Props: [region]" style="rounded=0;whiteSpace=wrap;html=1;verticalAlign=top;" parent="1" vertex="1">
          <mxGeometry x="320" y="1120" width="160" height="160" as="geometry" />
        </mxCell>
        <mxCell id="MGGLy1dyiqGOnvXCq7jh-40" value="Filters list of countries according to selected parameter&lt;br&gt;&lt;br&gt;&lt;span&gt;Props: [countries, selectedRegion]&lt;br&gt;&lt;br&gt;&lt;/span&gt;&lt;font color=&quot;#cc6600&quot;&gt;Components: [RegionResultsListItem]&lt;/font&gt;&lt;span&gt;&lt;br&gt;&lt;/span&gt;" style="rounded=0;whiteSpace=wrap;html=1;verticalAlign=top;" parent="1" vertex="1">
          <mxGeometry x="520" y="1120" width="160" height="160" as="geometry" />
        </mxCell>
        <mxCell id="MGGLy1dyiqGOnvXCq7jh-42" value="&lt;span style=&quot;font-family: &amp;#34;helvetica&amp;#34; ; color: rgb(77 , 153 , 0)&quot;&gt;eventBus Emit Select Country&lt;br&gt;&lt;/span&gt;&lt;span style=&quot;font-family: &amp;#34;helvetica&amp;#34;&quot;&gt;&lt;br&gt;Displays 1 country which meets the filter criteria&lt;br&gt;&lt;br&gt;Props: [country]&lt;br&gt;&lt;br&gt;&lt;font color=&quot;#cc6600&quot;&gt;Exports to parent list.&lt;/font&gt;&lt;/span&gt;" style="rounded=0;whiteSpace=wrap;html=1;verticalAlign=top;align=center;" parent="1" vertex="1">
          <mxGeometry x="720" y="1120" width="160" height="160" as="geometry" />
        </mxCell>
        <mxCell id="MGGLy1dyiqGOnvXCq7jh-44" value="" style="rounded=0;whiteSpace=wrap;html=1;" parent="1" vertex="1">
          <mxGeometry x="720" y="1080" width="160" height="40" as="geometry" />
        </mxCell>
        <mxCell id="MGGLy1dyiqGOnvXCq7jh-45" value="" style="rounded=0;whiteSpace=wrap;html=1;" parent="1" vertex="1">
          <mxGeometry x="520" y="1080" width="160" height="40" as="geometry" />
        </mxCell>
        <mxCell id="MGGLy1dyiqGOnvXCq7jh-46" value="" style="rounded=0;whiteSpace=wrap;html=1;" parent="1" vertex="1">
          <mxGeometry x="320" y="1080" width="160" height="40" as="geometry" />
        </mxCell>
        <mxCell id="MGGLy1dyiqGOnvXCq7jh-47" value="&lt;span style=&quot;color: rgb(77 , 153 , 0)&quot;&gt;eventBus Emit Select SubRegion&lt;br&gt;&lt;br&gt;&lt;/span&gt;Props: [subregion]" style="rounded=0;whiteSpace=wrap;html=1;verticalAlign=top;" parent="1" vertex="1">
          <mxGeometry x="320" y="1360" width="160" height="160" as="geometry" />
        </mxCell>
        <mxCell id="MGGLy1dyiqGOnvXCq7jh-48" value="" style="rounded=0;whiteSpace=wrap;html=1;" parent="1" vertex="1">
          <mxGeometry x="320" y="1320" width="160" height="40" as="geometry" />
        </mxCell>
        <mxCell id="MGGLy1dyiqGOnvXCq7jh-49" value="&lt;span style=&quot;color: rgb(77 , 153 , 0)&quot;&gt;eventBus Emit Select Bloc&lt;br&gt;&lt;br&gt;&lt;/span&gt;Props: [bloc]" style="rounded=0;whiteSpace=wrap;html=1;verticalAlign=top;" parent="1" vertex="1">
          <mxGeometry x="320" y="1600" width="160" height="160" as="geometry" />
        </mxCell>
        <mxCell id="MGGLy1dyiqGOnvXCq7jh-50" value="" style="rounded=0;whiteSpace=wrap;html=1;" parent="1" vertex="1">
          <mxGeometry x="320" y="1560" width="160" height="40" as="geometry" />
        </mxCell>
        <mxCell id="MGGLy1dyiqGOnvXCq7jh-51" value="Filters list of countries according to selected parameter&lt;br&gt;&lt;br&gt;&lt;span&gt;Props: [countries, selectedSubRegion]&lt;br&gt;&lt;br&gt;&lt;/span&gt;&lt;font color=&quot;#cc6600&quot;&gt;Components: [SubRegionResultsListItem]&lt;/font&gt;&lt;span&gt;&lt;br&gt;&lt;/span&gt;" style="rounded=0;whiteSpace=wrap;html=1;verticalAlign=top;" parent="1" vertex="1">
          <mxGeometry x="520" y="1360" width="160" height="160" as="geometry" />
        </mxCell>
        <mxCell id="MGGLy1dyiqGOnvXCq7jh-52" value="" style="rounded=0;whiteSpace=wrap;html=1;" parent="1" vertex="1">
          <mxGeometry x="520" y="1320" width="160" height="40" as="geometry" />
        </mxCell>
        <mxCell id="MGGLy1dyiqGOnvXCq7jh-53" value="&lt;span style=&quot;font-family: &amp;#34;helvetica&amp;#34; ; color: rgb(77 , 153 , 0)&quot;&gt;eventBus Emit Select Country&lt;br&gt;&lt;/span&gt;&lt;span style=&quot;font-family: &amp;#34;helvetica&amp;#34;&quot;&gt;&lt;br&gt;Displays 1 country which meets the filter criteria&lt;br&gt;&lt;br&gt;Props: [country]&lt;br&gt;&lt;br&gt;&lt;font color=&quot;#cc6600&quot;&gt;Exports to parent list.&lt;/font&gt;&lt;/span&gt;" style="rounded=0;whiteSpace=wrap;html=1;verticalAlign=top;align=center;" parent="1" vertex="1">
          <mxGeometry x="720" y="1360" width="160" height="160" as="geometry" />
        </mxCell>
        <mxCell id="MGGLy1dyiqGOnvXCq7jh-54" value="" style="rounded=0;whiteSpace=wrap;html=1;" parent="1" vertex="1">
          <mxGeometry x="720" y="1320" width="160" height="40" as="geometry" />
        </mxCell>
        <mxCell id="MGGLy1dyiqGOnvXCq7jh-55" value="Filters list of countries according to selected parameter&lt;br&gt;&lt;br&gt;&lt;span&gt;Props: [countries, selectedBloc]&lt;br&gt;&lt;br&gt;&lt;/span&gt;&lt;font color=&quot;#cc6600&quot;&gt;Components: [BlocResultsListItem]&lt;/font&gt;&lt;span&gt;&lt;br&gt;&lt;/span&gt;" style="rounded=0;whiteSpace=wrap;html=1;verticalAlign=top;" parent="1" vertex="1">
          <mxGeometry x="520" y="1600" width="160" height="160" as="geometry" />
        </mxCell>
        <mxCell id="MGGLy1dyiqGOnvXCq7jh-56" value="" style="rounded=0;whiteSpace=wrap;html=1;" parent="1" vertex="1">
          <mxGeometry x="520" y="1560" width="160" height="40" as="geometry" />
        </mxCell>
        <mxCell id="MGGLy1dyiqGOnvXCq7jh-57" value="&lt;span style=&quot;font-family: &amp;#34;helvetica&amp;#34; ; color: rgb(77 , 153 , 0)&quot;&gt;eventBus Emit Select Country&lt;br&gt;&lt;/span&gt;&lt;span style=&quot;font-family: &amp;#34;helvetica&amp;#34;&quot;&gt;&lt;br&gt;Displays 1 country which meets the filter criteria&lt;br&gt;&lt;br&gt;Props: [country]&lt;br&gt;&lt;br&gt;&lt;font color=&quot;#cc6600&quot;&gt;Exports to parent list.&lt;/font&gt;&lt;/span&gt;" style="rounded=0;whiteSpace=wrap;html=1;verticalAlign=top;align=center;" parent="1" vertex="1">
          <mxGeometry x="720" y="1600" width="160" height="160" as="geometry" />
        </mxCell>
        <mxCell id="MGGLy1dyiqGOnvXCq7jh-58" value="" style="rounded=0;whiteSpace=wrap;html=1;" parent="1" vertex="1">
          <mxGeometry x="720" y="1560" width="160" height="40" as="geometry" />
        </mxCell>
        <mxCell id="MGGLy1dyiqGOnvXCq7jh-59" value="RegionResultsListItem" style="text;html=1;strokeColor=none;fillColor=none;align=center;verticalAlign=middle;whiteSpace=wrap;rounded=0;fontStyle=1" parent="1" vertex="1">
          <mxGeometry x="720" y="1080" width="160" height="40" as="geometry" />
        </mxCell>
        <mxCell id="MGGLy1dyiqGOnvXCq7jh-60" value="RegionResultsList" style="text;html=1;strokeColor=none;fillColor=none;align=center;verticalAlign=middle;whiteSpace=wrap;rounded=0;fontStyle=1" parent="1" vertex="1">
          <mxGeometry x="520" y="1080" width="160" height="40" as="geometry" />
        </mxCell>
        <mxCell id="MGGLy1dyiqGOnvXCq7jh-61" value="RegionSearch" style="text;html=1;strokeColor=none;fillColor=none;align=center;verticalAlign=middle;whiteSpace=wrap;rounded=0;fontStyle=1" parent="1" vertex="1">
          <mxGeometry x="320" y="1080" width="160" height="40" as="geometry" />
        </mxCell>
        <mxCell id="MGGLy1dyiqGOnvXCq7jh-62" value="SubRegionResultsListItem" style="text;html=1;strokeColor=none;fillColor=none;align=center;verticalAlign=middle;whiteSpace=wrap;rounded=0;fontStyle=1" parent="1" vertex="1">
          <mxGeometry x="720" y="1320" width="160" height="40" as="geometry" />
        </mxCell>
        <mxCell id="MGGLy1dyiqGOnvXCq7jh-63" value="SubRegionResultsList" style="text;html=1;strokeColor=none;fillColor=none;align=center;verticalAlign=middle;whiteSpace=wrap;rounded=0;fontStyle=1" parent="1" vertex="1">
          <mxGeometry x="520" y="1320" width="160" height="40" as="geometry" />
        </mxCell>
        <mxCell id="MGGLy1dyiqGOnvXCq7jh-64" value="SubRegionSearch" style="text;html=1;strokeColor=none;fillColor=none;align=center;verticalAlign=middle;whiteSpace=wrap;rounded=0;fontStyle=1" parent="1" vertex="1">
          <mxGeometry x="320" y="1320" width="160" height="40" as="geometry" />
        </mxCell>
        <mxCell id="MGGLy1dyiqGOnvXCq7jh-65" value="BlocSearch" style="text;html=1;strokeColor=none;fillColor=none;align=center;verticalAlign=middle;whiteSpace=wrap;rounded=0;fontStyle=1" parent="1" vertex="1">
          <mxGeometry x="320" y="1560" width="160" height="40" as="geometry" />
        </mxCell>
        <mxCell id="MGGLy1dyiqGOnvXCq7jh-66" value="BlocResultsList" style="text;html=1;strokeColor=none;fillColor=none;align=center;verticalAlign=middle;whiteSpace=wrap;rounded=0;fontStyle=1" parent="1" vertex="1">
          <mxGeometry x="520" y="1560" width="160" height="40" as="geometry" />
        </mxCell>
        <mxCell id="MGGLy1dyiqGOnvXCq7jh-67" value="BlocResultsListItem" style="text;html=1;strokeColor=none;fillColor=none;align=center;verticalAlign=middle;whiteSpace=wrap;rounded=0;fontStyle=1" parent="1" vertex="1">
          <mxGeometry x="720" y="1560" width="160" height="40" as="geometry" />
        </mxCell>
        <mxCell id="MGGLy1dyiqGOnvXCq7jh-68" value="&lt;span style=&quot;color: rgb(77 , 153 , 0)&quot;&gt;eventBus Emit Select Language&lt;br&gt;&lt;br&gt;&lt;/span&gt;Props: [language]" style="rounded=0;whiteSpace=wrap;html=1;verticalAlign=top;" parent="1" vertex="1">
          <mxGeometry x="320" y="1840" width="160" height="160" as="geometry" />
        </mxCell>
        <mxCell id="MGGLy1dyiqGOnvXCq7jh-69" value="Filters list of countries according to selected parameter&lt;span&gt;&lt;br&gt;&lt;br&gt;Props: [countries, selectedLanguage]&lt;br&gt;&lt;br&gt;&lt;/span&gt;&lt;font color=&quot;#cc6600&quot;&gt;Components: [LanguageResultsListItem]&lt;/font&gt;&lt;span&gt;&lt;br&gt;&lt;/span&gt;" style="rounded=0;whiteSpace=wrap;html=1;verticalAlign=top;" parent="1" vertex="1">
          <mxGeometry x="520" y="1840" width="160" height="160" as="geometry" />
        </mxCell>
        <mxCell id="MGGLy1dyiqGOnvXCq7jh-70" value="&lt;span style=&quot;font-family: &amp;#34;helvetica&amp;#34; ; font-size: 12px ; font-style: normal ; letter-spacing: normal ; text-indent: 0px ; text-transform: none ; word-spacing: 0px ; background-color: rgb(248 , 249 , 250) ; color: rgb(77 , 153 , 0)&quot;&gt;eventBus Emit Select Country&lt;br&gt;&lt;/span&gt;&lt;span style=&quot;font-family: &amp;#34;helvetica&amp;#34; ; font-size: 12px ; font-style: normal ; letter-spacing: normal ; text-indent: 0px ; text-transform: none ; word-spacing: 0px ; background-color: rgb(248 , 249 , 250)&quot;&gt;&lt;br&gt;Displays 1 country which meets the filter criteria&lt;br&gt;&lt;br&gt;Props: [country]&lt;br&gt;&lt;br&gt;&lt;font color=&quot;#cc6600&quot;&gt;Exports to parent list.&lt;/font&gt;&lt;br&gt;&lt;/span&gt;" style="rounded=0;whiteSpace=wrap;html=1;verticalAlign=top;align=center;" parent="1" vertex="1">
          <mxGeometry x="720" y="1840" width="160" height="160" as="geometry" />
        </mxCell>
        <mxCell id="MGGLy1dyiqGOnvXCq7jh-71" value="" style="rounded=0;whiteSpace=wrap;html=1;" parent="1" vertex="1">
          <mxGeometry x="320" y="1800" width="160" height="40" as="geometry" />
        </mxCell>
        <mxCell id="MGGLy1dyiqGOnvXCq7jh-72" value="" style="rounded=0;whiteSpace=wrap;html=1;" parent="1" vertex="1">
          <mxGeometry x="520" y="1800" width="160" height="40" as="geometry" />
        </mxCell>
        <mxCell id="MGGLy1dyiqGOnvXCq7jh-73" value="" style="rounded=0;whiteSpace=wrap;html=1;" parent="1" vertex="1">
          <mxGeometry x="720" y="1800" width="160" height="40" as="geometry" />
        </mxCell>
        <mxCell id="MGGLy1dyiqGOnvXCq7jh-74" value="LanguageSearch" style="text;html=1;strokeColor=none;fillColor=none;align=center;verticalAlign=middle;whiteSpace=wrap;rounded=0;fontStyle=1" parent="1" vertex="1">
          <mxGeometry x="320" y="1800" width="160" height="40" as="geometry" />
        </mxCell>
        <mxCell id="MGGLy1dyiqGOnvXCq7jh-75" value="LanguageResultsList" style="text;html=1;strokeColor=none;fillColor=none;align=center;verticalAlign=middle;whiteSpace=wrap;rounded=0;fontStyle=1" parent="1" vertex="1">
          <mxGeometry x="520" y="1800" width="160" height="40" as="geometry" />
        </mxCell>
        <mxCell id="MGGLy1dyiqGOnvXCq7jh-76" value="LanguageResultsListItem" style="text;html=1;strokeColor=none;fillColor=none;align=center;verticalAlign=middle;whiteSpace=wrap;rounded=0;fontStyle=1" parent="1" vertex="1">
          <mxGeometry x="720" y="1800" width="160" height="40" as="geometry" />
        </mxCell>
        <mxCell id="MGGLy1dyiqGOnvXCq7jh-89" value="" style="rounded=0;whiteSpace=wrap;html=1;" parent="1" vertex="1">
          <mxGeometry x="760" y="40" width="160" height="40" as="geometry" />
        </mxCell>
        <mxCell id="MGGLy1dyiqGOnvXCq7jh-90" value="Filters list of countries according to selected parameter&lt;br&gt;&lt;br&gt;Props: [borderingCountries]&lt;br&gt;&lt;br&gt;&lt;font color=&quot;#cc6600&quot;&gt;Components: [CountryListItem]&lt;/font&gt;" style="rounded=0;whiteSpace=wrap;html=1;verticalAlign=top;" parent="1" vertex="1">
          <mxGeometry x="760" y="80" width="160" height="160" as="geometry" />
        </mxCell>
        <mxCell id="MGGLy1dyiqGOnvXCq7jh-91" value="&lt;b&gt;BorderingCountriesList&lt;/b&gt;" style="text;html=1;strokeColor=none;fillColor=none;align=center;verticalAlign=middle;whiteSpace=wrap;rounded=0;" parent="1" vertex="1">
          <mxGeometry x="760" y="40" width="160" height="40" as="geometry" />
        </mxCell>
        <mxCell id="MGGLy1dyiqGOnvXCq7jh-93" value="" style="rounded=0;whiteSpace=wrap;html=1;" parent="1" vertex="1">
          <mxGeometry x="1000" y="40" width="160" height="40" as="geometry" />
        </mxCell>
        <mxCell id="MGGLy1dyiqGOnvXCq7jh-94" value="&lt;span style=&quot;font-family: &amp;#34;helvetica&amp;#34; ; color: rgb(77 , 153 , 0)&quot;&gt;eventBus Emit Select Country&lt;br&gt;&lt;/span&gt;&lt;span style=&quot;font-family: &amp;#34;helvetica&amp;#34;&quot;&gt;&lt;br&gt;Displays bordering countries&lt;br&gt;&lt;br&gt;Props: [borderingCountry]&lt;br&gt;&lt;br&gt;&lt;font color=&quot;#cc6600&quot;&gt;Exports to parent list.&lt;/font&gt;&lt;/span&gt;" style="rounded=0;whiteSpace=wrap;html=1;verticalAlign=top;" parent="1" vertex="1">
          <mxGeometry x="1000" y="80" width="160" height="160" as="geometry" />
        </mxCell>
        <mxCell id="MGGLy1dyiqGOnvXCq7jh-95" value="&lt;b&gt;BorderingCountriesListItem&lt;/b&gt;" style="text;html=1;strokeColor=none;fillColor=none;align=center;verticalAlign=middle;whiteSpace=wrap;rounded=0;" parent="1" vertex="1">
          <mxGeometry x="1000" y="40" width="160" height="40" as="geometry" />
        </mxCell>
        <mxCell id="MGGLy1dyiqGOnvXCq7jh-103" value="" style="rounded=0;whiteSpace=wrap;html=1;" parent="1" vertex="1">
          <mxGeometry x="320" y="600" width="160" height="40" as="geometry" />
        </mxCell>
        <mxCell id="MGGLy1dyiqGOnvXCq7jh-104" value="" style="rounded=0;whiteSpace=wrap;html=1;" parent="1" vertex="1">
          <mxGeometry x="520" y="600" width="160" height="40" as="geometry" />
        </mxCell>
        <mxCell id="MGGLy1dyiqGOnvXCq7jh-105" value="" style="rounded=0;whiteSpace=wrap;html=1;" parent="1" vertex="1">
          <mxGeometry x="720" y="600" width="160" height="40" as="geometry" />
        </mxCell>
        <mxCell id="MGGLy1dyiqGOnvXCq7jh-106" value="" style="rounded=0;whiteSpace=wrap;html=1;" parent="1" vertex="1">
          <mxGeometry x="320" y="640" width="160" height="160" as="geometry" />
        </mxCell>
        <mxCell id="MGGLy1dyiqGOnvXCq7jh-107" value="Filters list of countries according to selected parameter&lt;br&gt;&lt;br&gt;&lt;span&gt;Props: [countries, selectedFirstLetter]&lt;br&gt;&lt;br&gt;&lt;font color=&quot;#cc6600&quot;&gt;Components: [CountryListItem]&lt;/font&gt;&lt;br&gt;&lt;/span&gt;" style="rounded=0;whiteSpace=wrap;html=1;verticalAlign=top;" parent="1" vertex="1">
          <mxGeometry x="520" y="640" width="160" height="160" as="geometry" />
        </mxCell>
        <mxCell id="MGGLy1dyiqGOnvXCq7jh-108" value="&lt;span style=&quot;font-family: &amp;#34;helvetica&amp;#34; ; color: rgb(77 , 153 , 0)&quot;&gt;eventBus Emit Select Country&lt;br&gt;&lt;/span&gt;&lt;span style=&quot;font-family: &amp;#34;helvetica&amp;#34;&quot;&gt;&lt;br&gt;Displays 1 country which meets the filter criteria&lt;br&gt;&lt;br&gt;Props: [country]&lt;br&gt;&lt;br&gt;&lt;font color=&quot;#cc6600&quot;&gt;Exports to parent list.&lt;/font&gt;&lt;/span&gt;" style="rounded=0;whiteSpace=wrap;html=1;verticalAlign=top;align=center;" parent="1" vertex="1">
          <mxGeometry x="720" y="640" width="160" height="160" as="geometry" />
        </mxCell>
        <mxCell id="MGGLy1dyiqGOnvXCq7jh-109" value="CountryDetail" style="text;html=1;strokeColor=none;fillColor=none;align=center;verticalAlign=middle;whiteSpace=wrap;rounded=0;fontStyle=1" parent="1" vertex="1">
          <mxGeometry x="320" y="600" width="160" height="40" as="geometry" />
        </mxCell>
        <mxCell id="MGGLy1dyiqGOnvXCq7jh-110" value="CountryList" style="text;html=1;strokeColor=none;fillColor=none;align=center;verticalAlign=middle;whiteSpace=wrap;rounded=0;fontStyle=1" parent="1" vertex="1">
          <mxGeometry x="520" y="600" width="160" height="40" as="geometry" />
        </mxCell>
        <mxCell id="MGGLy1dyiqGOnvXCq7jh-111" value="CountryListItem" style="text;html=1;strokeColor=none;fillColor=none;align=center;verticalAlign=middle;whiteSpace=wrap;rounded=0;fontStyle=1" parent="1" vertex="1">
          <mxGeometry x="720" y="600" width="160" height="40" as="geometry" />
        </mxCell>
        <mxCell id="MGGLy1dyiqGOnvXCq7jh-112" value="&lt;b&gt;Displays details about selected country&lt;br&gt;&lt;/b&gt;&lt;br&gt;Props: [country, borderingCountries]&lt;br&gt;&lt;br&gt;&lt;i&gt;&lt;font color=&quot;#4d9900&quot;&gt;Can select bordering country via eventBus&lt;/font&gt;&lt;/i&gt;" style="text;html=1;strokeColor=none;fillColor=none;align=center;verticalAlign=middle;whiteSpace=wrap;rounded=0;" parent="1" vertex="1">
          <mxGeometry x="320" y="640" width="160" height="160" as="geometry" />
        </mxCell>
        <mxCell id="MGGLy1dyiqGOnvXCq7jh-114" value="&lt;font color=&quot;#4d9900&quot;&gt;eventBus On select Country&lt;br&gt;&lt;br&gt;eventBus On select Letter&lt;br&gt;&lt;br&gt;eventBus On select Region&lt;br&gt;&lt;br&gt;eventBus On select SubRegion&lt;br&gt;&lt;br&gt;eventBus On select Bloc&lt;br&gt;&lt;br&gt;eventBus On Select Language&lt;/font&gt;" style="text;html=1;strokeColor=none;fillColor=none;align=right;verticalAlign=top;whiteSpace=wrap;rounded=0;" parent="1" vertex="1">
          <mxGeometry x="520" y="320" width="200" height="240" as="geometry" />
        </mxCell>
        <mxCell id="MGGLy1dyiqGOnvXCq7jh-115" value="" style="endArrow=classic;html=1;strokeColor=#007FFF;strokeWidth=2;entryX=0;entryY=0.5;entryDx=0;entryDy=0;exitX=0.595;exitY=1.021;exitDx=0;exitDy=0;exitPerimeter=0;" parent="1" source="MGGLy1dyiqGOnvXCq7jh-25" target="MGGLy1dyiqGOnvXCq7jh-112" edge="1">
          <mxGeometry width="50" height="50" relative="1" as="geometry">
            <mxPoint x="640" y="630" as="sourcePoint" />
            <mxPoint x="690" y="580" as="targetPoint" />
            <Array as="points">
              <mxPoint x="159" y="720" />
            </Array>
          </mxGeometry>
        </mxCell>
        <mxCell id="MGGLy1dyiqGOnvXCq7jh-116" value="" style="endArrow=classic;html=1;strokeColor=#007FFF;strokeWidth=2;entryX=0;entryY=0.5;entryDx=0;entryDy=0;" parent="1" target="MGGLy1dyiqGOnvXCq7jh-32" edge="1">
          <mxGeometry width="50" height="50" relative="1" as="geometry">
            <mxPoint x="160" y="720" as="sourcePoint" />
            <mxPoint x="690" y="580" as="targetPoint" />
            <Array as="points">
              <mxPoint x="160" y="960" />
            </Array>
          </mxGeometry>
        </mxCell>
        <mxCell id="MGGLy1dyiqGOnvXCq7jh-117" value="" style="endArrow=classic;html=1;strokeWidth=2;entryX=1;entryY=0.054;entryDx=0;entryDy=0;entryPerimeter=0;exitX=1.006;exitY=0.131;exitDx=0;exitDy=0;strokeColor=#4D9900;exitPerimeter=0;" parent="1" source="MGGLy1dyiqGOnvXCq7jh-108" target="MGGLy1dyiqGOnvXCq7jh-114" edge="1">
          <mxGeometry width="50" height="50" relative="1" as="geometry">
            <mxPoint x="640" y="730" as="sourcePoint" />
            <mxPoint x="690" y="680" as="targetPoint" />
            <Array as="points">
              <mxPoint x="900" y="661" />
              <mxPoint x="900" y="333" />
            </Array>
          </mxGeometry>
        </mxCell>
        <mxCell id="MGGLy1dyiqGOnvXCq7jh-118" value="" style="endArrow=classic;html=1;strokeColor=#4D9900;strokeWidth=2;entryX=1;entryY=0.179;entryDx=0;entryDy=0;entryPerimeter=0;exitX=1;exitY=0.113;exitDx=0;exitDy=0;exitPerimeter=0;" parent="1" source="MGGLy1dyiqGOnvXCq7jh-32" target="MGGLy1dyiqGOnvXCq7jh-114" edge="1">
          <mxGeometry width="50" height="50" relative="1" as="geometry">
            <mxPoint x="1050" y="410" as="sourcePoint" />
            <mxPoint x="730" y="360" as="targetPoint" />
            <Array as="points">
              <mxPoint x="490" y="898" />
              <mxPoint x="490" y="570" />
              <mxPoint x="880" y="570" />
              <mxPoint x="880" y="363" />
            </Array>
          </mxGeometry>
        </mxCell>
        <mxCell id="MGGLy1dyiqGOnvXCq7jh-121" value="" style="endArrow=classic;html=1;strokeWidth=2;entryX=0;entryY=0.25;entryDx=0;entryDy=0;strokeColor=#3333FF;" parent="1" target="MGGLy1dyiqGOnvXCq7jh-38" edge="1">
          <mxGeometry width="50" height="50" relative="1" as="geometry">
            <mxPoint x="160" y="960" as="sourcePoint" />
            <mxPoint x="310" y="1170" as="targetPoint" />
            <Array as="points">
              <mxPoint x="160" y="1160" />
            </Array>
          </mxGeometry>
        </mxCell>
        <mxCell id="MGGLy1dyiqGOnvXCq7jh-122" value="" style="endArrow=classic;html=1;strokeWidth=2;entryX=0;entryY=0.25;entryDx=0;entryDy=0;strokeColor=#0000FF;" parent="1" edge="1">
          <mxGeometry width="50" height="50" relative="1" as="geometry">
            <mxPoint x="161" y="1150" as="sourcePoint" />
            <mxPoint x="321" y="1410" as="targetPoint" />
            <Array as="points">
              <mxPoint x="161" y="1410" />
            </Array>
          </mxGeometry>
        </mxCell>
        <mxCell id="MGGLy1dyiqGOnvXCq7jh-123" value="" style="endArrow=classic;html=1;strokeWidth=2;entryX=0;entryY=0.25;entryDx=0;entryDy=0;strokeColor=#0000FF;" parent="1" edge="1">
          <mxGeometry width="50" height="50" relative="1" as="geometry">
            <mxPoint x="160" y="1400" as="sourcePoint" />
            <mxPoint x="320" y="1640" as="targetPoint" />
            <Array as="points">
              <mxPoint x="160" y="1640" />
            </Array>
          </mxGeometry>
        </mxCell>
        <mxCell id="MGGLy1dyiqGOnvXCq7jh-124" value="" style="endArrow=classic;html=1;strokeWidth=2;entryX=0;entryY=0.25;entryDx=0;entryDy=0;strokeColor=#0000FF;" parent="1" edge="1">
          <mxGeometry width="50" height="50" relative="1" as="geometry">
            <mxPoint x="160" y="1630" as="sourcePoint" />
            <mxPoint x="320" y="1900" as="targetPoint" />
            <Array as="points">
              <mxPoint x="160" y="1900" />
            </Array>
          </mxGeometry>
        </mxCell>
        <mxCell id="MGGLy1dyiqGOnvXCq7jh-126" value="" style="endArrow=classic;html=1;strokeWidth=2;exitX=1.019;exitY=0.125;exitDx=0;exitDy=0;exitPerimeter=0;strokeColor=#4D9900;" parent="1" source="MGGLy1dyiqGOnvXCq7jh-34" edge="1">
          <mxGeometry width="50" height="50" relative="1" as="geometry">
            <mxPoint x="640" y="1000" as="sourcePoint" />
            <mxPoint x="900" y="660" as="targetPoint" />
            <Array as="points">
              <mxPoint x="900" y="900" />
            </Array>
          </mxGeometry>
        </mxCell>
        <mxCell id="MGGLy1dyiqGOnvXCq7jh-127" value="" style="endArrow=classic;html=1;strokeWidth=2;exitX=1.019;exitY=0.125;exitDx=0;exitDy=0;exitPerimeter=0;strokeColor=#4D9900;" parent="1" edge="1">
          <mxGeometry width="50" height="50" relative="1" as="geometry">
            <mxPoint x="880" y="1140" as="sourcePoint" />
            <mxPoint x="896.96" y="900" as="targetPoint" />
            <Array as="points">
              <mxPoint x="896.96" y="1140" />
            </Array>
          </mxGeometry>
        </mxCell>
        <mxCell id="MGGLy1dyiqGOnvXCq7jh-128" value="" style="endArrow=classic;html=1;strokeWidth=2;exitX=1.019;exitY=0.125;exitDx=0;exitDy=0;exitPerimeter=0;strokeColor=#4D9900;" parent="1" edge="1">
          <mxGeometry width="50" height="50" relative="1" as="geometry">
            <mxPoint x="880" y="1380" as="sourcePoint" />
            <mxPoint x="896.96" y="1140" as="targetPoint" />
            <Array as="points">
              <mxPoint x="896.96" y="1380" />
            </Array>
          </mxGeometry>
        </mxCell>
        <mxCell id="MGGLy1dyiqGOnvXCq7jh-129" value="" style="endArrow=classic;html=1;strokeWidth=2;exitX=1.019;exitY=0.125;exitDx=0;exitDy=0;exitPerimeter=0;strokeColor=#4D9900;" parent="1" edge="1">
          <mxGeometry width="50" height="50" relative="1" as="geometry">
            <mxPoint x="880" y="1620" as="sourcePoint" />
            <mxPoint x="896.96" y="1380" as="targetPoint" />
            <Array as="points">
              <mxPoint x="896.96" y="1620" />
            </Array>
          </mxGeometry>
        </mxCell>
        <mxCell id="MGGLy1dyiqGOnvXCq7jh-131" value="" style="endArrow=classic;html=1;strokeWidth=2;exitX=1.019;exitY=0.125;exitDx=0;exitDy=0;exitPerimeter=0;strokeColor=#4D9900;" parent="1" edge="1">
          <mxGeometry width="50" height="50" relative="1" as="geometry">
            <mxPoint x="880" y="1860" as="sourcePoint" />
            <mxPoint x="896.96" y="1620" as="targetPoint" />
            <Array as="points">
              <mxPoint x="896.96" y="1860" />
            </Array>
          </mxGeometry>
        </mxCell>
        <mxCell id="MGGLy1dyiqGOnvXCq7jh-134" value="" style="endArrow=classic;html=1;strokeWidth=2;entryX=1;entryY=0.75;entryDx=0;entryDy=0;strokeColor=#CC6600;" parent="1" target="MGGLy1dyiqGOnvXCq7jh-33" edge="1">
          <mxGeometry width="50" height="50" relative="1" as="geometry">
            <mxPoint x="718" y="1000" as="sourcePoint" />
            <mxPoint x="500" y="970" as="targetPoint" />
          </mxGeometry>
        </mxCell>
        <mxCell id="MGGLy1dyiqGOnvXCq7jh-137" value="" style="endArrow=classic;html=1;strokeWidth=2;entryX=1;entryY=0.75;entryDx=0;entryDy=0;strokeColor=#CC6600;exitX=0;exitY=0.75;exitDx=0;exitDy=0;" parent="1" source="MGGLy1dyiqGOnvXCq7jh-108" target="MGGLy1dyiqGOnvXCq7jh-107" edge="1">
          <mxGeometry width="50" height="50" relative="1" as="geometry">
            <mxPoint x="728" y="1010" as="sourcePoint" />
            <mxPoint x="690" y="1010" as="targetPoint" />
          </mxGeometry>
        </mxCell>
        <mxCell id="MGGLy1dyiqGOnvXCq7jh-138" value="" style="endArrow=classic;html=1;strokeWidth=2;entryX=1;entryY=0.75;entryDx=0;entryDy=0;strokeColor=#CC6600;exitX=0;exitY=0.75;exitDx=0;exitDy=0;" parent="1" edge="1">
          <mxGeometry width="50" height="50" relative="1" as="geometry">
            <mxPoint x="720" y="1240" as="sourcePoint" />
            <mxPoint x="680" y="1240" as="targetPoint" />
          </mxGeometry>
        </mxCell>
        <mxCell id="MGGLy1dyiqGOnvXCq7jh-139" value="" style="endArrow=classic;html=1;strokeWidth=2;entryX=1;entryY=0.75;entryDx=0;entryDy=0;strokeColor=#CC6600;exitX=0;exitY=0.75;exitDx=0;exitDy=0;" parent="1" edge="1">
          <mxGeometry width="50" height="50" relative="1" as="geometry">
            <mxPoint x="720" y="1480" as="sourcePoint" />
            <mxPoint x="680" y="1480" as="targetPoint" />
          </mxGeometry>
        </mxCell>
        <mxCell id="MGGLy1dyiqGOnvXCq7jh-140" value="" style="endArrow=classic;html=1;strokeWidth=2;entryX=1;entryY=0.75;entryDx=0;entryDy=0;strokeColor=#CC6600;exitX=0;exitY=0.75;exitDx=0;exitDy=0;" parent="1" edge="1">
          <mxGeometry width="50" height="50" relative="1" as="geometry">
            <mxPoint x="720" y="1720" as="sourcePoint" />
            <mxPoint x="680" y="1720" as="targetPoint" />
          </mxGeometry>
        </mxCell>
        <mxCell id="MGGLy1dyiqGOnvXCq7jh-141" value="" style="endArrow=classic;html=1;strokeWidth=2;entryX=1;entryY=0.75;entryDx=0;entryDy=0;strokeColor=#CC6600;exitX=0;exitY=0.75;exitDx=0;exitDy=0;" parent="1" edge="1">
          <mxGeometry width="50" height="50" relative="1" as="geometry">
            <mxPoint x="720" y="1960" as="sourcePoint" />
            <mxPoint x="680" y="1960" as="targetPoint" />
          </mxGeometry>
        </mxCell>
        <mxCell id="MGGLy1dyiqGOnvXCq7jh-143" value="" style="endArrow=none;html=1;strokeWidth=2;entryX=1;entryY=0.75;entryDx=0;entryDy=0;exitX=0;exitY=0.75;exitDx=0;exitDy=0;endFill=0;startArrow=classic;startFill=1;strokeColor=#0000FF;" parent="1" edge="1">
          <mxGeometry width="50" height="50" relative="1" as="geometry">
            <mxPoint x="720" y="1940" as="sourcePoint" />
            <mxPoint x="680" y="1940" as="targetPoint" />
          </mxGeometry>
        </mxCell>
        <mxCell id="MGGLy1dyiqGOnvXCq7jh-144" value="" style="endArrow=none;html=1;strokeWidth=2;entryX=1;entryY=0.75;entryDx=0;entryDy=0;exitX=0;exitY=0.75;exitDx=0;exitDy=0;endFill=0;startArrow=classic;startFill=1;strokeColor=#0000FF;" parent="1" edge="1">
          <mxGeometry width="50" height="50" relative="1" as="geometry">
            <mxPoint x="720" y="1700" as="sourcePoint" />
            <mxPoint x="680" y="1700" as="targetPoint" />
          </mxGeometry>
        </mxCell>
        <mxCell id="MGGLy1dyiqGOnvXCq7jh-145" value="" style="endArrow=none;html=1;strokeWidth=2;entryX=1;entryY=0.75;entryDx=0;entryDy=0;exitX=0;exitY=0.75;exitDx=0;exitDy=0;endFill=0;startArrow=classic;startFill=1;strokeColor=#0000FF;" parent="1" edge="1">
          <mxGeometry width="50" height="50" relative="1" as="geometry">
            <mxPoint x="720" y="1460" as="sourcePoint" />
            <mxPoint x="680" y="1460" as="targetPoint" />
          </mxGeometry>
        </mxCell>
        <mxCell id="MGGLy1dyiqGOnvXCq7jh-146" value="" style="endArrow=none;html=1;strokeWidth=2;entryX=1;entryY=0.75;entryDx=0;entryDy=0;exitX=0;exitY=0.75;exitDx=0;exitDy=0;endFill=0;startArrow=classic;startFill=1;strokeColor=#0000FF;" parent="1" edge="1">
          <mxGeometry width="50" height="50" relative="1" as="geometry">
            <mxPoint x="720" y="1220" as="sourcePoint" />
            <mxPoint x="680" y="1220" as="targetPoint" />
          </mxGeometry>
        </mxCell>
        <mxCell id="MGGLy1dyiqGOnvXCq7jh-147" value="" style="endArrow=none;html=1;strokeWidth=2;entryX=1;entryY=0.75;entryDx=0;entryDy=0;exitX=0;exitY=0.75;exitDx=0;exitDy=0;endFill=0;startArrow=classic;startFill=1;strokeColor=#0000FF;" parent="1" edge="1">
          <mxGeometry width="50" height="50" relative="1" as="geometry">
            <mxPoint x="720" y="980" as="sourcePoint" />
            <mxPoint x="680" y="980" as="targetPoint" />
          </mxGeometry>
        </mxCell>
        <mxCell id="MGGLy1dyiqGOnvXCq7jh-148" value="" style="endArrow=none;html=1;strokeWidth=2;entryX=1;entryY=0.75;entryDx=0;entryDy=0;exitX=0;exitY=0.75;exitDx=0;exitDy=0;endFill=0;startArrow=classic;startFill=1;strokeColor=#0000FF;" parent="1" edge="1">
          <mxGeometry width="50" height="50" relative="1" as="geometry">
            <mxPoint x="720" y="740" as="sourcePoint" />
            <mxPoint x="680" y="740" as="targetPoint" />
          </mxGeometry>
        </mxCell>
        <mxCell id="MGGLy1dyiqGOnvXCq7jh-149" value="" style="endArrow=classic;html=1;strokeWidth=2;entryX=1.015;entryY=0.296;entryDx=0;entryDy=0;entryPerimeter=0;strokeColor=#4D9900;" parent="1" target="MGGLy1dyiqGOnvXCq7jh-114" edge="1">
          <mxGeometry width="50" height="50" relative="1" as="geometry">
            <mxPoint x="880" y="391" as="sourcePoint" />
            <mxPoint x="490" y="650" as="targetPoint" />
          </mxGeometry>
        </mxCell>
        <mxCell id="MGGLy1dyiqGOnvXCq7jh-150" value="" style="endArrow=classic;html=1;strokeWidth=2;entryX=1.015;entryY=0.296;entryDx=0;entryDy=0;entryPerimeter=0;strokeColor=#4D9900;" parent="1" edge="1">
          <mxGeometry width="50" height="50" relative="1" as="geometry">
            <mxPoint x="880" y="420" as="sourcePoint" />
            <mxPoint x="723" y="420.03999999999996" as="targetPoint" />
          </mxGeometry>
        </mxCell>
        <mxCell id="MGGLy1dyiqGOnvXCq7jh-151" value="" style="endArrow=classic;html=1;strokeWidth=2;entryX=1.015;entryY=0.296;entryDx=0;entryDy=0;entryPerimeter=0;strokeColor=#4D9900;" parent="1" edge="1">
          <mxGeometry width="50" height="50" relative="1" as="geometry">
            <mxPoint x="880" y="450" as="sourcePoint" />
            <mxPoint x="723" y="450.03999999999996" as="targetPoint" />
          </mxGeometry>
        </mxCell>
        <mxCell id="MGGLy1dyiqGOnvXCq7jh-152" value="" style="endArrow=classic;html=1;strokeWidth=2;entryX=1.015;entryY=0.296;entryDx=0;entryDy=0;entryPerimeter=0;strokeColor=#4D9900;" parent="1" edge="1">
          <mxGeometry width="50" height="50" relative="1" as="geometry">
            <mxPoint x="880" y="480" as="sourcePoint" />
            <mxPoint x="723" y="480.03999999999996" as="targetPoint" />
          </mxGeometry>
        </mxCell>
        <mxCell id="MGGLy1dyiqGOnvXCq7jh-153" value="" style="endArrow=classic;html=1;strokeColor=#4D9900;strokeWidth=2;exitX=1.006;exitY=0.088;exitDx=0;exitDy=0;exitPerimeter=0;" parent="1" source="MGGLy1dyiqGOnvXCq7jh-38" edge="1">
          <mxGeometry width="50" height="50" relative="1" as="geometry">
            <mxPoint x="440" y="1120" as="sourcePoint" />
            <mxPoint x="490" y="900" as="targetPoint" />
            <Array as="points">
              <mxPoint x="490" y="1134" />
            </Array>
          </mxGeometry>
        </mxCell>
        <mxCell id="MGGLy1dyiqGOnvXCq7jh-154" value="" style="endArrow=classic;html=1;strokeColor=#4D9900;strokeWidth=2;exitX=0.994;exitY=0.113;exitDx=0;exitDy=0;exitPerimeter=0;" parent="1" source="MGGLy1dyiqGOnvXCq7jh-47" edge="1">
          <mxGeometry width="50" height="50" relative="1" as="geometry">
            <mxPoint x="480.00000000000006" y="1364.08" as="sourcePoint" />
            <mxPoint x="489.04" y="1130" as="targetPoint" />
            <Array as="points">
              <mxPoint x="489" y="1378" />
            </Array>
          </mxGeometry>
        </mxCell>
        <mxCell id="MGGLy1dyiqGOnvXCq7jh-155" value="" style="endArrow=classic;html=1;strokeColor=#4D9900;strokeWidth=2;exitX=0.994;exitY=0.113;exitDx=0;exitDy=0;exitPerimeter=0;" parent="1" edge="1">
          <mxGeometry width="50" height="50" relative="1" as="geometry">
            <mxPoint x="479.99999999999994" y="1618.08" as="sourcePoint" />
            <mxPoint x="489.99999999999994" y="1370" as="targetPoint" />
            <Array as="points">
              <mxPoint x="489.96" y="1618" />
            </Array>
          </mxGeometry>
        </mxCell>
        <mxCell id="MGGLy1dyiqGOnvXCq7jh-156" value="" style="endArrow=classic;html=1;strokeColor=#4D9900;strokeWidth=2;exitX=0.994;exitY=0.113;exitDx=0;exitDy=0;exitPerimeter=0;" parent="1" edge="1">
          <mxGeometry width="50" height="50" relative="1" as="geometry">
            <mxPoint x="479.99999999999994" y="1858.08" as="sourcePoint" />
            <mxPoint x="489.99999999999994" y="1610" as="targetPoint" />
            <Array as="points">
              <mxPoint x="489.96" y="1858" />
            </Array>
          </mxGeometry>
        </mxCell>
        <mxCell id="AwZCCvGzalZecO2XpGkN-1" value="" style="endArrow=classic;html=1;strokeWidth=2;entryX=0;entryY=0.5;entryDx=0;entryDy=0;strokeColor=#0000FF;" edge="1" parent="1" target="MGGLy1dyiqGOnvXCq7jh-55">
          <mxGeometry width="50" height="50" relative="1" as="geometry">
            <mxPoint x="160" y="1540" as="sourcePoint" />
            <mxPoint x="750" y="1660" as="targetPoint" />
            <Array as="points">
              <mxPoint x="510" y="1540" />
              <mxPoint x="510" y="1680" />
            </Array>
          </mxGeometry>
        </mxCell>
        <mxCell id="AwZCCvGzalZecO2XpGkN-2" value="" style="endArrow=classic;html=1;strokeWidth=2;entryX=0;entryY=0.5;entryDx=0;entryDy=0;strokeColor=#0000FF;" edge="1" parent="1">
          <mxGeometry width="50" height="50" relative="1" as="geometry">
            <mxPoint x="160" y="1290" as="sourcePoint" />
            <mxPoint x="520" y="1430" as="targetPoint" />
            <Array as="points">
              <mxPoint x="510" y="1290" />
              <mxPoint x="510" y="1430" />
            </Array>
          </mxGeometry>
        </mxCell>
        <mxCell id="AwZCCvGzalZecO2XpGkN-3" value="" style="endArrow=classic;html=1;strokeWidth=2;entryX=0;entryY=0.5;entryDx=0;entryDy=0;strokeColor=#0000FF;" edge="1" parent="1">
          <mxGeometry width="50" height="50" relative="1" as="geometry">
            <mxPoint x="160" y="1050" as="sourcePoint" />
            <mxPoint x="520" y="1190" as="targetPoint" />
            <Array as="points">
              <mxPoint x="510" y="1050" />
              <mxPoint x="510" y="1190" />
            </Array>
          </mxGeometry>
        </mxCell>
        <mxCell id="AwZCCvGzalZecO2XpGkN-4" value="" style="endArrow=classic;html=1;strokeWidth=2;entryX=0;entryY=0.5;entryDx=0;entryDy=0;strokeColor=#0000FF;" edge="1" parent="1">
          <mxGeometry width="50" height="50" relative="1" as="geometry">
            <mxPoint x="161" y="810" as="sourcePoint" />
            <mxPoint x="521" y="950" as="targetPoint" />
            <Array as="points">
              <mxPoint x="511" y="810" />
              <mxPoint x="511" y="950" />
            </Array>
          </mxGeometry>
        </mxCell>
        <mxCell id="AwZCCvGzalZecO2XpGkN-5" value="" style="endArrow=classic;html=1;strokeWidth=2;entryX=0;entryY=0.5;entryDx=0;entryDy=0;strokeColor=#0000FF;" edge="1" parent="1">
          <mxGeometry width="50" height="50" relative="1" as="geometry">
            <mxPoint x="161" y="580" as="sourcePoint" />
            <mxPoint x="521" y="720" as="targetPoint" />
            <Array as="points">
              <mxPoint x="511" y="580" />
              <mxPoint x="511" y="720" />
            </Array>
          </mxGeometry>
        </mxCell>
        <mxCell id="AwZCCvGzalZecO2XpGkN-6" value="" style="endArrow=classic;html=1;strokeWidth=2;entryX=0;entryY=0.5;entryDx=0;entryDy=0;strokeColor=#0000FF;" edge="1" parent="1">
          <mxGeometry width="50" height="50" relative="1" as="geometry">
            <mxPoint x="160" y="1770" as="sourcePoint" />
            <mxPoint x="520" y="1910" as="targetPoint" />
            <Array as="points">
              <mxPoint x="510" y="1770" />
              <mxPoint x="510" y="1910" />
            </Array>
          </mxGeometry>
        </mxCell>
        <mxCell id="AwZCCvGzalZecO2XpGkN-7" value="" style="rounded=0;whiteSpace=wrap;html=1;align=center;fillColor=#66B2FF;" vertex="1" parent="1">
          <mxGeometry x="20" y="580" width="120" height="250" as="geometry" />
        </mxCell>
        <mxCell id="AwZCCvGzalZecO2XpGkN-8" value="&lt;i&gt;&lt;b&gt;Props Sent Down:&lt;br&gt;&lt;br&gt;Countries&lt;br&gt;Country&lt;br&gt;&lt;br&gt;FirstLetter&lt;br&gt;Region&lt;br&gt;SubRegion&lt;br&gt;Bloc&lt;br&gt;Language&lt;br&gt;&lt;br&gt;SelectedFirstLetter&lt;br&gt;SelectedRegion&lt;br&gt;SelectedSubRegion&lt;br&gt;SelectedBloc&lt;br&gt;SelectedLanguage&lt;br&gt;&lt;/b&gt;&lt;/i&gt;" style="text;html=1;strokeColor=none;fillColor=none;align=center;verticalAlign=top;whiteSpace=wrap;rounded=0;" vertex="1" parent="1">
          <mxGeometry x="24.5" y="585" width="111" height="245" as="geometry" />
        </mxCell>
        <mxCell id="AwZCCvGzalZecO2XpGkN-9" value="" style="endArrow=classic;html=1;strokeWidth=2;strokeColor=#CC6600;exitX=0;exitY=0.75;exitDx=0;exitDy=0;" edge="1" parent="1">
          <mxGeometry width="50" height="50" relative="1" as="geometry">
            <mxPoint x="1000" y="190" as="sourcePoint" />
            <mxPoint x="923" y="190" as="targetPoint" />
          </mxGeometry>
        </mxCell>
        <mxCell id="AwZCCvGzalZecO2XpGkN-11" value="" style="endArrow=none;html=1;strokeWidth=2;entryX=1;entryY=0.75;entryDx=0;entryDy=0;endFill=0;startArrow=classic;startFill=1;strokeColor=#0000FF;exitX=0;exitY=0.5;exitDx=0;exitDy=0;" edge="1" parent="1" source="MGGLy1dyiqGOnvXCq7jh-94">
          <mxGeometry width="50" height="50" relative="1" as="geometry">
            <mxPoint x="990" y="160" as="sourcePoint" />
            <mxPoint x="920" y="160" as="targetPoint" />
          </mxGeometry>
        </mxCell>
        <mxCell id="AwZCCvGzalZecO2XpGkN-14" value="" style="endArrow=classic;html=1;strokeWidth=2;exitX=1;exitY=0.75;exitDx=0;exitDy=0;strokeColor=#336600;" edge="1" parent="1" source="MGGLy1dyiqGOnvXCq7jh-112">
          <mxGeometry width="50" height="50" relative="1" as="geometry">
            <mxPoint x="610" y="700" as="sourcePoint" />
            <mxPoint x="900" y="360" as="targetPoint" />
            <Array as="points">
              <mxPoint x="500" y="760" />
              <mxPoint x="500" y="590" />
              <mxPoint x="940" y="590" />
              <mxPoint x="940" y="360" />
            </Array>
          </mxGeometry>
        </mxCell>
        <mxCell id="AwZCCvGzalZecO2XpGkN-15" value="" style="endArrow=classic;html=1;strokeWidth=2;fontColor=#000000;exitX=1.013;exitY=0.106;exitDx=0;exitDy=0;exitPerimeter=0;strokeColor=#336600;" edge="1" parent="1" source="MGGLy1dyiqGOnvXCq7jh-94">
          <mxGeometry width="50" height="50" relative="1" as="geometry">
            <mxPoint x="610" y="360" as="sourcePoint" />
            <mxPoint x="900" y="340" as="targetPoint" />
            <Array as="points">
              <mxPoint x="1180" y="97" />
              <mxPoint x="1180" y="340" />
            </Array>
          </mxGeometry>
        </mxCell>
        <mxCell id="AwZCCvGzalZecO2XpGkN-16" value="" style="endArrow=classic;html=1;strokeWidth=2;fontColor=#000000;entryX=-0.025;entryY=0.438;entryDx=0;entryDy=0;entryPerimeter=0;exitX=0.174;exitY=-0.05;exitDx=0;exitDy=0;exitPerimeter=0;strokeColor=#0000FF;" edge="1" parent="1" source="MGGLy1dyiqGOnvXCq7jh-24" target="MGGLy1dyiqGOnvXCq7jh-90">
          <mxGeometry width="50" height="50" relative="1" as="geometry">
            <mxPoint x="610" y="360" as="sourcePoint" />
            <mxPoint x="660" y="310" as="targetPoint" />
            <Array as="points">
              <mxPoint x="158" y="260" />
              <mxPoint x="740" y="260" />
              <mxPoint x="740" y="150" />
            </Array>
          </mxGeometry>
        </mxCell>
      </root>
    </mxGraphModel>
  </diagram>
</mxfile>
